<?xml version="1.0" encoding="UTF-8"?>
<svg id="Layer_1" data-name="Layer 1" xmlns="http://www.w3.org/2000/svg" viewBox="0 0 1920 1080">
  <defs>
    <style>
      .cls-1 {
        fill: #005b5b;
      }

      .cls-2 {
        fill: #ff3985;
      }

      .cls-3 {
        fill: #fff;
      }
    </style>
  </defs>
  <rect class="cls-3" y="0" width="1920" height="1080"/>
  <g>
    <g>
      <path d="M238.58,427.92l-27.08,29.48c11.94,17.48,23.71,34.96,35.59,52.45h-16.34l-28.45-42.39-8.91,9.71v32.68h-13.71v-81.93h13.71v30.85l27.65-30.85h17.54Z"/>
      <path d="M305.05,494.65h-38.91l-5.88,15.2h-14.34l32.97-81.93h13.54l32.91,81.93h-14.34l-5.94-15.2Zm-34.11-12.51h29.31l-14.63-37.82-14.68,37.82Z"/>
      <path d="M331.58,509.84v-81.93h38.28c6.34,0,10.51,1.08,14.05,3.14,7.08,3.83,11.71,11.2,11.71,20.45s-4.63,16.51-11.77,20.39c-3.54,2-7.66,3.14-14,3.14h-24.62v34.79h-13.65Zm36.62-47.48c3.6,0,5.43-.29,7.08-.97,3.89-1.6,6.86-5.03,6.86-9.83s-2.86-8.23-6.86-9.88c-1.66-.69-3.43-1.03-7.14-1.03h-22.91v21.71h22.97Z"/>
      <path d="M472.77,427.92v81.93h-13.71v-69.19h-40.96v69.19h-13.71v-81.93h68.39Z"/>
      <path d="M538.15,494.65h-38.91l-5.88,15.2h-14.34l32.97-81.93h13.54l32.91,81.93h-14.34l-5.94-15.2Zm-34.11-12.51h29.31l-14.63-37.82-14.68,37.82Z"/>
      <path d="M618.84,427.86v12.8h-27.82v69.19h-13.71v-69.19h-27.71v-12.8h69.24Z"/>
      <path d="M688.27,460.31c-3.71-12.17-13.54-19.77-26.57-19.77-16.17,0-27.65,12.22-27.65,28.34s11.31,28.28,27.65,28.28c13.03,0,22.91-7.66,26.68-20.11l13.03,4.06c-4.91,17.14-20.8,28.74-39.71,28.74-23.08,0-41.65-17.6-41.65-40.96s18-41.02,41.65-41.02c18.4,0,34.16,10.45,39.54,28.16l-12.97,4.29Z"/>
      <path d="M762.16,506.7c-3.6,2-7.89,3.14-14.28,3.14h-37.54v-81.93h13.65v33.31h23.88c6.4,0,10.68,1.14,14.23,3.2,7.37,3.94,12.17,11.77,12.17,21.08s-4.8,17.2-12.11,21.2Zm-8.63-31.82c-1.71-.68-3.6-1.03-7.26-1.03h-22.28v23.31h22.22c3.77,0,5.66-.34,7.31-1.08,4.17-1.71,7.2-5.49,7.2-10.57s-3.09-8.85-7.2-10.63Z"/>
      <path d="M841.94,427.92l-27.08,29.48c11.94,17.48,23.71,34.96,35.59,52.45h-16.34l-28.45-42.39-8.91,9.71v32.68h-13.71v-81.93h13.71v30.85l27.65-30.85h17.54Z"/>
      <path d="M913.66,452.66l-49.59,57.19h-7.43v-81.93h13.71v57.13c16.51-19.02,33.02-38.11,49.59-57.13h7.43v81.93h-13.71v-57.19Z"/>
      <path d="M998.01,452.66l-49.59,57.19h-7.43v-81.93h13.71v57.13c16.51-19.02,33.02-38.11,49.59-57.13h7.43v81.93h-13.71v-57.19Zm-29.99-28.11l17.2-19.31c3.03,2.86,6.17,5.66,9.2,8.46-5.77,6.4-11.48,12.85-17.2,19.25l-9.2-8.4Z"/>
      <path d="M536.89,546.82v12.8h-27.82v69.19h-13.71v-69.19h-27.71v-12.8h69.24Z"/>
      <path d="M546.1,628.8v-81.93h38.28c6.34,0,10.51,1.08,14.05,3.14,7.08,3.83,11.71,11.2,11.71,20.45s-4.63,16.51-11.77,20.39c-3.54,2-7.66,3.14-14,3.14h-24.62v34.79h-13.65Zm36.62-47.48c3.6,0,5.43-.29,7.08-.97,3.89-1.6,6.86-5.03,6.86-9.83s-2.86-8.23-6.86-9.88c-1.66-.69-3.43-1.03-7.14-1.03h-22.91v21.71h22.97Z"/>
      <path d="M663.13,613.61h-38.91l-5.88,15.2h-14.34l32.97-81.93h13.54l32.91,81.93h-14.34l-5.94-15.2Zm-34.11-12.51h29.31l-14.63-37.82-14.68,37.82Z"/>
      <path d="M697.03,546.88l35.48,42.68,35.42-42.68h7.43v81.93h-13.71v-55.93l-29.14,35.59-29.19-35.59v55.93h-13.65v-81.93h7.37Z"/>
      <path d="M788.98,546.88h32.34c5.94,0,9.77,.91,13.08,2.63,7.43,3.66,12.4,11.03,12.4,20.51,0,5.6-2.4,10.63-6.46,14.4,7.83,3.66,13.25,10.97,13.25,20.28s-5.03,17.42-12.68,21.31c-3.49,1.77-7.43,2.8-13.71,2.8h-38.22v-81.93Zm30.91,33.54c3.54,0,5.31-.29,6.97-.91,3.89-1.66,6.8-4.97,6.8-9.65s-2.91-8-6.8-9.65c-1.6-.68-3.37-.97-6.97-.97h-17.25v21.2h17.25Zm4.91,35.88c3.89,0,5.83-.4,7.66-1.09,4.34-1.77,7.66-5.6,7.66-11.02s-3.2-9.14-7.66-10.91c-1.77-.74-3.71-1.08-7.77-1.08h-22.05v24.11h22.17Z"/>
      <path d="M914.52,613.61h-38.91l-5.88,15.2h-14.34l32.97-81.93h13.54l32.91,81.93h-14.34l-5.94-15.2Zm-34.11-12.51h29.31l-14.63-37.82-14.68,37.82Z"/>
      <path d="M998.01,571.62l-49.59,57.19h-7.43v-81.93h13.71v57.13c16.51-19.02,33.02-38.11,49.59-57.13h7.43v81.93h-13.71v-57.19Zm-29.99-28.11l17.2-19.31c3.03,2.86,6.17,5.66,9.2,8.46-5.77,6.4-11.48,12.85-17.2,19.25l-9.2-8.4Z"/>
    </g>
    <g>
      <rect x="1097.73" y="427.92" width="200.86" height="200.83"/>
      <rect x="1627.87" y="470.97" width="29.41" height="57.35"/>
      <polygon class="cls-1" points="1241.22 628.75 1155.11 628.75 1198.16 585.7 1241.22 628.75"/>
      <polygon class="cls-1" points="1241.22 427.92 1155.11 427.92 1198.16 470.97 1241.22 427.92"/>
      <polygon class="cls-1" points="1097.73 485.29 1097.73 571.37 1140.77 528.33 1097.73 485.29"/>
      <rect x="1124.7" y="641.34" width="60.82" height="60.82" transform="translate(-136.68 1013.54) rotate(-45)"/>
      <rect x="1210.81" y="641.35" width="60.82" height="60.82" transform="translate(-111.46 1074.43) rotate(-45)"/>
      <rect class="cls-2" x="1097.73" y="571.37" width="57.38" height="57.38"/>
      <rect class="cls-2" x="1097.73" y="427.92" width="57.38" height="57.38"/>
      <rect class="cls-2" x="1241.22" y="571.38" width="57.38" height="57.38"/>
      <rect class="cls-2" x="1241.22" y="427.92" width="57.38" height="57.38"/>
      <polygon points="1700.32 528.34 1700.32 628.75 1499.43 628.75 1499.43 427.92 1599.89 427.92 1599.89 528.34 1700.32 528.34"/>
      <polygon class="cls-1" points="1642.94 628.75 1556.83 628.75 1599.89 585.7 1642.94 628.75"/>
      <polygon class="cls-1" points="1599.89 427.92 1599.89 470.97 1556.84 427.92 1599.89 427.92"/>
      <polygon class="cls-1" points="1700.32 528.34 1700.32 571.37 1657.28 528.34 1700.32 528.34"/>
      <rect x="1526.42" y="641.34" width="60.82" height="60.82" transform="translate(-19.02 1297.6) rotate(-45)"/>
      <rect x="1612.53" y="641.35" width="60.82" height="60.82" transform="translate(6.2 1358.49) rotate(-45)"/>
      <rect class="cls-2" x="1499.46" y="571.37" width="57.38" height="57.38"/>
      <rect class="cls-2" x="1499.46" y="427.92" width="57.38" height="57.38"/>
      <rect class="cls-2" x="1642.94" y="571.38" width="57.38" height="57.38"/>
      <rect class="cls-2" x="1298.57" y="427.92" width="200.86" height="200.83"/>
      <polygon class="cls-1" points="1442.08 628.75 1355.97 628.75 1399.03 585.7 1442.08 628.75"/>
      <polygon class="cls-1" points="1442.08 427.92 1355.97 427.92 1399.03 470.97 1442.08 427.92"/>
      <rect x="1298.59" y="571.37" width="57.38" height="57.38"/>
      <rect x="1298.59" y="427.92" width="57.38" height="57.38"/>
      <rect x="1442.05" y="571.38" width="57.38" height="57.38"/>
      <rect x="1442.05" y="427.92" width="57.38" height="57.38"/>
      <polygon class="cls-1" points="1341.63 528.33 1298.6 571.37 1298.6 571.38 1255.56 528.34 1298.6 485.3 1341.63 528.33"/>
      <polygon class="cls-1" points="1542.5 528.33 1499.46 571.37 1499.46 571.38 1456.42 528.34 1499.46 485.3 1542.5 528.33"/>
    </g>
  </g>
</svg>